<svg id="zoom-icon" viewBox="0 0 40 40"  xmlns="http://www.w3.org/2000/svg">
	<defs>
		<g id="zoom">
			<path stroke="#fff" stroke-width="3" stroke-linejoin="round" d="M22.646,19.307C23.606,17.724,24.169,15.871999999999998,24.17,13.886C24.169,8.093,19.478,3.401,13.688,3.399C7.897,3.401,3.204,8.093,3.204,13.885C3.204,19.674,7.897,24.366,13.688,24.366C15.675,24.366,17.527,23.803,19.11,22.843L26.238,29.97L29.773,26.433L22.646,19.307ZM13.688,20.369C10.106000000000002,20.361,7.210000000000001,17.465,7.204000000000001,13.885C7.210000000000001,10.303,10.107000000000001,7.407,13.688,7.399C17.267,7.407,20.166,10.303,20.172,13.885C20.165,17.465,17.267,20.361,13.688,20.369ZM15.687,9.051H11.687V11.884H8.854V15.885000000000002H11.687V18.718000000000004H15.687V15.884000000000004H18.519V11.885000000000003H15.685999999999998V9.051Z" transform="matrix(1,0,0,1,4,4)"></path>
			<path fill="#000" d="M22.646,19.307C23.606,17.724,24.169,15.871999999999998,24.17,13.886C24.169,8.093,19.478,3.401,13.688,3.399C7.897,3.401,3.204,8.093,3.204,13.885C3.204,19.674,7.897,24.366,13.688,24.366C15.675,24.366,17.527,23.803,19.11,22.843L26.238,29.97L29.773,26.433L22.646,19.307ZM13.688,20.369C10.106000000000002,20.361,7.210000000000001,17.465,7.204000000000001,13.885C7.210000000000001,10.303,10.107000000000001,7.407,13.688,7.399C17.267,7.407,20.166,10.303,20.172,13.885C20.165,17.465,17.267,20.361,13.688,20.369ZM15.687,9.051H11.687V11.884H8.854V15.885000000000002H11.687V18.718000000000004H15.687V15.884000000000004H18.519V11.885000000000003H15.685999999999998V9.051Z" transform="matrix(1,0,0,1,4,4)"></path>
		</g>
	</defs>
</svg>
